<?xml version="1.0" encoding="UTF-8" standalone="no"?>
<!DOCTYPE svg PUBLIC "-//W3C//DTD SVG 1.1//EN" "http://www.w3.org/Graphics/SVG/1.1/DTD/svg11.dtd">
<svg xmlns="http://www.w3.org/2000/svg" xmlns:dc="http://purl.org/dc/elements/1.1/" xmlns:xl="http://www.w3.org/1999/xlink" version="1.1" viewBox="-1.44 -1.44 75.01 43.76" width="75.01" height="43.76">
  <defs/>
  <metadata> Produced by OmniGraffle 7.12.1 
    <dc:date>2020-12-27 06:17:32 +0000</dc:date>
  </metadata>
  <g id="Canvas_1" fill-opacity="1" stroke="none" stroke-dasharray="none" stroke-opacity="1" fill="none">
    <title>Canvas 1</title>
    <g id="Canvas_1: Layer 1">
      <title>Layer 1</title>
      <g id="Group_2">
        <g id="Graphic_4">
          <path d="M 40.307 25.12 C 40.454283 25.621034 40.91578 25.96379 41.438 25.96 L 41.51 25.96 C 42.03263 25.963677 42.49464 25.621142 42.643 25.12 L 53.085 1.241 C 53.14404 1.1292849 53.169396 1.0028407 53.158 .877 C 53.13363 .38891893 52.732675 .004632333 52.244 .001 C 51.8116 .03562341 51.43992 .32113684 51.295 .73 L 41.51 23.66 L 31.763 .767 C 31.62762 .3300713 31.233836 .024150708 30.777 .001 C 30.26887 .005658735 29.852386 .40548213 29.827 .913 C 29.81268 1.050567 29.83801 1.1893594 29.9 1.313 L 40.307 25.12 M 12.851 .84 C 12.704301 .3385596 12.24244 -.004467715 11.72 0 L 11.648 0 C 11.125263 -.0040129393 10.663068 .3386554 10.515 .84 L .073 24.719 C .013962125 24.830715 -.011396192 24.95716 7105427e-21 25.083 C .024367947 25.57108 .4253245 25.955368 .914 25.959 C 1.3464029 25.924377 1.7180795 25.638863 1.863 25.23 L 11.648 2.3 L 21.4 25.193 C 21.535381 25.62993 21.929164 25.93585 22.386 25.959 C 22.89413 25.95434 23.310614 25.554518 23.336 25.047 C 23.350432 24.90943 23.325097 24.770605 23.263 24.647 L 12.851 .84 M 66.96 0 C 66.43914 .009079123 66.01908 .42913653 66.01 .95 L 66.01 24.9 C 66.01 25.42467 66.43533 25.85 66.96 25.85 C 67.48467 25.85 67.91 25.42467 67.91 24.9 L 67.91 .95 C 67.90092 .42913653 67.48086 .009079123 66.96 0" fill="white"/>
        </g>
        <g id="Graphic_3">
          <path d="M .154 34.5 C .15667383 34.367635 .26362502 34.261126 .396 34.259 L .47 34.259 C .5682603 34.26303 .6583053 34.314966 .711 34.398 L 5.092 39.958 L 5.092 34.482 C 5.092 34.35387 5.19587 34.25 5.324 34.25 C 5.45213 34.25 5.556 34.35387 5.556 34.482 L 5.556 40.608 C 5.557343 40.66105 5.537549 40.712455 5.5009757 40.750904 C 5.4644026 40.78935 5.414049 40.81169 5.361 40.813 L 5.325 40.813 C 5.224647 40.80019 5.135768 40.74192 5.084 40.655 L .618 34.992 L .618 40.592 C .618 40.72013 .51413006 40.824 .386 40.824 C .25786994 40.824 .154 40.72013 .154 40.592 Z M 13.1 40.895 C 12.460715 40.887357 11.852063 40.61991 11.414065 40.15418 C 10.976067 39.688455 10.746436 39.06455 10.778 38.426 L 10.778 38.408 C 10.741262 37.78078 10.958951 37.165237 11.381841 36.700566 C 11.804731 36.235895 12.397102 35.961345 13.025 35.939 C 13.645225 35.955675 14.230808 36.228625 14.6424 36.6929 C 15.053991 37.15717 15.254786 37.77125 15.197 38.389 C 15.188362 38.50688 15.092135 38.599223 14.974 38.603 L 11.263 38.603 C 11.269482 39.626814 12.09523 40.456566 13.119 40.468 C 13.69724 40.47182 14.251467 40.23703 14.651 39.819 C 14.68899 39.777474 14.742718 39.753877 14.799 39.754 C 14.856897 39.75239 14.913035 39.77399 14.954919 39.813996 C 14.996802 39.854 15.020955 39.90909 15.022 39.967 C 15.019366 40.02742 14.99273 40.084294 14.948 40.125 C 14.473178 40.63744 13.799214 40.91841 13.1 40.895 Z M 14.706 38.195 C 14.72848 37.724836 14.561046 37.265366 14.241341 36.919897 C 13.921637 36.57443 13.476494 36.371954 13.006 36.358 C 12.029309 36.41054 11.263772 37.2169 11.262 38.195 Z M 20.494 39.568 L 20.494 36.468 L 19.983 36.468 C 19.86753 36.46293 19.775072 36.37047 19.77 36.255 C 19.777362 36.142695 19.870455 36.055285 19.983 36.055 L 20.494 36.055 L 20.494 34.737 C 20.49126 34.676235 20.51357 34.617007 20.555723 34.573154 C 20.597875 34.5293 20.656174 34.504664 20.717 34.505 C 20.778694 34.50446 20.838018 34.52873 20.881643 34.572357 C 20.92527 34.615982 20.94954 34.675306 20.949 34.737 L 20.949 36.055 L 22.434 36.055 C 22.550047 36.059636 22.642907 36.152933 22.647 36.269 C 22.639638 36.381305 22.546545 36.468715 22.434 36.469 L 20.949 36.469 L 20.949 39.523 C 20.91874 39.779825 21.009916 40.03608 21.195596 40.216072 C 21.381275 40.396066 21.64024 40.47923 21.896 40.441 C 22.078689 40.435 22.2597 40.404047 22.434 40.349 C 22.541895 40.354952 22.628048 40.441105 22.634 40.549 C 22.632827 40.639443 22.572794 40.71854 22.486 40.744 C 22.271685 40.822635 22.045285 40.863245 21.817 40.864 C 21.46008 40.899817 21.105664 40.775423 20.849421 40.524394 C 20.59318 40.273366 20.461526 39.92158 20.494 39.568 Z M 28.935 40.645 L 27.385 36.384 C 27.36382 36.33731 27.351284 36.287165 27.348 36.236 C 27.35549 36.108493 27.462295 36.009633 27.59 36.012 C 27.70759 36.013097 27.808245 36.096627 27.831 36.212 L 29.204 40.212 L 30.578 36.194 C 30.60177 36.08995 30.69427 36.016116 30.801 36.016 L 30.819 36.016 C 30.92882 36.013286 31.025744 36.08733 31.052 36.194 L 32.425 40.212 L 33.808 36.194 C 33.834574 36.083286 33.93786 36.008446 34.051343 36.017675 C 34.164827 36.026903 34.254663 36.117447 34.263 36.231 C 34.2608 36.285215 34.248242 36.33851 34.226 36.388 L 32.676 40.649 C 32.64449 40.763 32.543157 40.843743 32.425 40.849 L 32.407 40.849 C 32.28344 40.845515 32.17898 40.756455 32.156 40.635 L 30.81 36.76 L 29.455 40.631 C 29.43202 40.752455 29.32756 40.841515 29.204 40.845 L 29.186 40.845 C 29.06796 40.839435 28.966784 40.75882 28.935 40.645 Z M 38.827 38.436 L 38.827 38.417 C 38.81845 37.76362 39.071686 37.13398 39.530247 36.66847 C 39.98881 36.20296 40.614565 35.94028 41.268 35.939 C 41.91716 35.93811 42.539457 36.198067 42.995084 36.660464 C 43.45071 37.12286 43.70146 37.748925 43.691 38.398 L 43.691 38.417 C 43.69955 39.070472 43.446343 39.70021 42.98781 40.16588 C 42.52928 40.63155 41.903527 40.894453 41.25 40.896 C 40.60075 40.89662 39.978456 40.63644 39.52286 40.173886 C 39.06726 39.71133 38.81654 39.085167 38.827 38.436 Z M 43.199 38.436 L 43.199 38.417 C 43.21704 37.885225 43.020836 37.36847 42.654405 36.982674 C 42.287975 36.59688 41.782 36.374344 41.25 36.365 C 40.721703 36.370794 40.21824 36.59016 39.85429 36.97314 C 39.49034 37.356116 39.29689 37.870093 39.318 38.398 L 39.318 38.417 C 39.30023 38.948775 39.496695 39.46542 39.86331 39.85103 C 40.22993 40.236635 40.736006 40.458915 41.268 40.468 C 41.79612 40.462484 42.299495 40.243307 42.66332 39.860454 C 43.02714 39.4776 43.220393 38.96372 43.199 38.436 Z M 48.811 36.245 C 48.80537 36.16012 48.84746 36.07917 48.92017 36.03502 C 48.99288 35.99087 49.08412 35.99087 49.15683 36.03502 C 49.22954 36.07917 49.27163 36.16012 49.266 36.245 L 49.266 37.396 C 49.578537 36.600453 50.31451 36.05041 51.166 35.976 C 51.2316 35.976226 51.294296 36.003073 51.33973 36.05039 C 51.38516 36.09771 51.40944 36.161446 51.407 36.227 C 51.40868 36.36227 51.30124 36.473724 51.166 36.477 C 50.598255 36.53447 50.077345 36.81745 49.72013 37.262465 C 49.36292 37.707477 49.199306 38.277264 49.266 38.844 L 49.266 40.59 C 49.26875 40.650674 49.24641 40.709807 49.204226 40.753504 C 49.16204 40.7972 49.103734 40.82161 49.043 40.821 C 48.980983 40.82325 48.92081 40.799667 48.876837 40.75588 C 48.83286 40.712094 48.80902 40.652026 48.811 40.59 Z M 56.241 34.203 C 56.23826 34.142235 56.26057 34.083007 56.30272 34.039154 C 56.344875 33.9953 56.403174 33.970664 56.464 33.971 C 56.525694 33.97046 56.58502 33.99473 56.62864 34.038357 C 56.67227 34.081982 56.69654 34.141306 56.696 34.203 L 56.696 39.086 L 59.596 36.078 C 59.6363 36.033797 59.69426 36.00995 59.754 36.013 C 59.810914 36.012176 59.865724 36.03449 59.90588 36.074834 C 59.94603 36.115176 59.96809 36.17009 59.967 36.227 C 59.969075 36.2882 59.941525 36.34665 59.893 36.384 L 58.157 38.148 L 60.014 40.441 C 60.05669 40.486014 60.080025 40.54597 60.079 40.608 C 60.08115 40.666806 60.058165 40.723747 60.0158 40.764586 C 59.97343 40.805425 59.91569 40.826303 59.857 40.822 C 59.77761 40.825113 59.702145 40.78738 59.657 40.722 L 57.838 38.475 L 56.7 39.634 L 56.7 40.59 C 56.704266 40.65116 56.68246 40.711274 56.63997 40.755476 C 56.597485 40.79968 56.53828 40.823844 56.477 40.822 C 56.4148 40.824264 56.35447 40.80055 56.31046 40.75654 C 56.26645 40.71253 56.242736 40.652197 56.245 40.59 Z M 64.851 40.26 C 64.79995 40.21541 64.76956 40.151734 64.767 40.084 C 64.769136 39.961736 64.86774 39.863136 64.99 39.861 C 65.04322 39.860597 65.09527 39.876665 65.139 39.907 C 65.5934 40.2516 66.14674 40.440606 66.717 40.446 C 67.357 40.446 67.859 40.093 67.859 39.546 L 67.859 39.528 C 67.859 38.971 67.265 38.767 66.605 38.581 C 65.835 38.358 64.981 38.126 64.981 37.281 L 64.981 37.261 C 65.001136 36.87565 65.18044 36.515983 65.47605 36.267965 C 65.77166 36.019947 66.157015 35.90587 66.54 35.953 C 67.078175 35.9652 67.60478 36.111633 68.072 36.379 C 68.14281 36.42167 68.188065 36.496474 68.193 36.579 C 68.19085 36.701093 68.0921 36.7994 67.97 36.801 C 67.92378 36.801868 67.87829 36.789367 67.839 36.765 C 67.44261 36.519797 66.98797 36.38482 66.522 36.374 C 65.872 36.374 65.445 36.728 65.445 37.201 L 65.445 37.219 C 65.445 37.749 66.085 37.944 66.763 38.138 C 67.524 38.352 68.322 38.631 68.322 39.466 L 68.322 39.485 C 68.30116 39.88973 68.11394 40.267843 67.80468 40.52976 C 67.49542 40.791673 67.09164 40.914087 66.689 40.868 C 66.0283 40.85504 65.38721 40.641224 64.851 40.26 Z M 69.8 35.56 C 69.799595 35.08062 70.088055 34.64822 70.53083 34.46449 C 70.9736 34.28076 71.48345 34.381896 71.82257 34.720725 C 72.16168 35.059554 72.26325 35.56932 72.07989 36.01225 C 71.89654 36.455176 71.46438 36.744 70.985 36.744 C 70.67065 36.7448 70.36893 36.620344 70.14655 36.398157 C 69.92418 36.17597 69.79947 35.874353 69.8 35.56 Z M 71.857 35.56 C 71.842194 35.08152 71.44483 34.704212 70.96622 34.71419 C 70.48762 34.724167 70.10632 35.11771 70.11147 35.59639 C 70.11662 36.07507 70.50629 36.46032 70.985 36.46 C 71.22262 36.46476 71.45153 36.37051 71.61691 36.199816 C 71.78229 36.029123 71.869264 35.797355 71.857 35.56 Z M 71.573 36.203 L 71.263 36.203 L 70.979 35.663 L 70.766 35.663 L 70.766 36.203 L 70.5 36.203 L 70.5 34.925 L 71.119 34.925 C 71.453 34.925 71.619 35.015 71.619 35.316 C 71.619 35.553 71.494 35.647 71.269 35.663 Z M 71.119 35.472 C 71.263 35.472 71.362 35.441 71.362 35.281 C 71.362 35.121 71.178 35.122 71.057 35.122 L 70.766 35.122 L 70.766 35.472 Z" fill="white"/>
        </g>
      </g>
    </g>
  </g>
</svg>
